<svg width="40" height="40" xmlns="http://www.w3.org/2000/svg"><g fill="#e93d50" fill-rule="evenodd"><path d="M16.944 24.59l7.65-4.59-7.65-4.59z"/><path d="M20 .008C8.96.008.008 8.958.008 20c0 11.04 8.95 19.992 19.992 19.992 11.04 0 19.992-8.95 19.992-19.992C39.992 8.96 31.042.008 20 .008zm12.237 20.98c0 2.112-.245 4.224-.245 4.224s-.24 1.8-.972 2.59c-.93 1.04-1.974 1.046-2.452 1.107-3.425.26-8.568.27-8.568.27s-6.364-.06-8.32-.264c-.546-.11-1.768-.077-2.7-1.116-.733-.79-.972-2.59-.972-2.59s-.245-2.11-.245-4.225v-1.98c0-2.112.245-4.224.245-4.224s.24-1.8.972-2.59c.932-1.04 1.974-1.047 2.452-1.106 3.425-.265 8.562-.265 8.562-.265h.01s5.14 0 8.564.264c.478.06 1.52.065 2.452 1.104.733.792.972 2.592.972 2.592s.245 2.11.245 4.224v1.98z"/></g></svg>