<svg width="40" height="40" fill="none" xmlns="http://www.w3.org/2000/svg"><path fill-rule="evenodd" clip-rule="evenodd" d="M20 40C8.955 40 0 31.045 0 20 0 8.954 8.955 0 20 0s20 8.954 20 20c0 11.045-8.955 20-20 20Z" fill="#E93D50"/><path d="M20 11.392c2.803 0 3.136.01 4.243.061.666.008 1.325.13 1.95.362a3.48 3.48 0 0 1 1.992 1.992c.232.625.354 1.284.362 1.95.05 1.107.061 1.44.061 4.243 0 2.803-.01 3.136-.061 4.243a5.823 5.823 0 0 1-.361 1.95 3.48 3.48 0 0 1-1.993 1.992 5.823 5.823 0 0 1-1.95.362c-1.107.05-1.44.061-4.243.061-2.804 0-3.136-.01-4.243-.061a5.823 5.823 0 0 1-1.95-.361 3.48 3.48 0 0 1-1.992-1.993 5.823 5.823 0 0 1-.362-1.95c-.05-1.107-.061-1.44-.061-4.243 0-2.803.01-3.136.061-4.243.008-.666.13-1.325.362-1.95a3.48 3.48 0 0 1 1.992-1.992 5.823 5.823 0 0 1 1.95-.362c1.107-.05 1.44-.061 4.243-.061ZM20 9.5c-2.85 0-3.21.012-4.329.063a7.707 7.707 0 0 0-2.55.487 5.37 5.37 0 0 0-3.07 3.072 7.709 7.709 0 0 0-.487 2.55C9.512 16.791 9.5 17.15 9.5 20c0 2.85.012 3.21.063 4.329.017.871.182 1.734.487 2.55a5.372 5.372 0 0 0 3.071 3.07c.817.306 1.679.471 2.55.488 1.12.051 1.479.063 4.329.063 2.85 0 3.21-.012 4.329-.063a7.707 7.707 0 0 0 2.55-.488 5.372 5.372 0 0 0 3.07-3.07c.306-.817.471-1.679.488-2.55.051-1.12.063-1.479.063-4.329 0-2.85-.012-3.21-.063-4.329a7.706 7.706 0 0 0-.488-2.55 5.37 5.37 0 0 0-3.071-3.07 7.709 7.709 0 0 0-2.55-.487C23.209 9.512 22.85 9.5 20 9.5Z" fill="#fff"/><path d="M20 14.608a5.391 5.391 0 1 0 0 10.783 5.391 5.391 0 0 0 0-10.783Zm0 8.892a3.5 3.5 0 1 1 0-6.999 3.5 3.5 0 0 1 0 6.999ZM25.605 15.655a1.26 1.26 0 1 0 0-2.52 1.26 1.26 0 0 0 0 2.52Z" fill="#fff"/></svg>